<svg xmlns="http://www.w3.org/2000/svg">
  <symbol id="facebook">
    <title>페이스북</title>
    <desc>페이스북 아이콘</desc>
    <path d="M22.675 0h-21.35c-.732 0-1.325.593-1.325 1.325v21.351c0 .731.593 1.324 1.325 1.324h11.495v-9.294h-3.128v-3.622h3.128v-2.671c0-3.1 1.893-4.788 4.659-4.788 1.325 0 2.463.099 2.795.143v3.24l-1.918.001c-1.504 0-1.795.715-1.795 1.763v2.313h3.587l-.467 3.622h-3.12v9.293h6.116c.73 0 1.323-.593 1.323-1.325v-21.35c0-.732-.593-1.325-1.325-1.325z"/>
  </symbol>
  <symbol id="add-post">
    <title>게시물 만들기</title>
    <desc>새 게시물 만들기 아이콘</desc>
    <path d="M2 12v3.45c0 2.849.698 4.005 1.606 4.944.94.909 2.098 1.608 4.946 1.608h6.896c2.848 0 4.006-.7 4.946-1.608C21.302 19.455 22 18.3 22 15.45V8.552c0-2.849-.698-4.006-1.606-4.945C19.454 2.7 18.296 2 15.448 2H8.552c-2.848 0-4.006.699-4.946 1.607C2.698 4.547 2 5.703 2 8.552z" fill="none" stroke="currentColor" stroke-linecap="round" stroke-linejoin="round" stroke-width="2"></path>
    <line fill="none" stroke="currentColor" stroke-linecap="round" stroke-linejoin="round" stroke-width="2" x1="6.545" x2="17.455" y1="12.001" y2="12.001"></line><line fill="none" stroke="currentColor" stroke-linecap="round" stroke-linejoin="round" stroke-width="2" x1="12.003" x2="12.003" y1="6.545" y2="17.455"></line>
  </symbol>
  <symbol id="add-intro">
    <title>소개 문구 작성하기</title>
    <desc>프로필 페이지에 있는 소개 문구 작성하기 아이콘</desc>
    <path d="M12 2c5.514 0 10 4.486 10 10s-4.486 10-10 10-10-4.486-10-10 4.486-10 10-10zm0-2c-6.627 0-12 5.373-12 12s5.373 12 12 12 12-5.373 12-12-5.373-12-12-12zm6 13h-5v5h-2v-5h-5v-2h5v-5h2v5h5v2z"/>
  </symbol>
  <symbol id="setting">
    <title>셋팅</title>
    <desc>프로필 페이지에 있는 사용자 계정 옵션 셋팅 아이콘</desc>
    <circle cx="12" cy="12" fill="none" r="8.635" stroke="currentColor" stroke-linecap="round" stroke-linejoin="round" stroke-width="2"></circle>
    <path d="M14.232 3.656a1.269 1.269 0 01-.796-.66L12.93 2h-1.86l-.505.996a1.269 1.269 0 01-.796.66m-.001 16.688a1.269 1.269 0 01.796.66l.505.996h1.862l.505-.996a1.269 1.269 0 01.796-.66M3.656 9.768a1.269 1.269 0 01-.66.796L2 11.07v1.862l.996.505a1.269 1.269 0 01.66.796m16.688-.001a1.269 1.269 0 01.66-.796L22 12.93v-1.86l-.996-.505a1.269 1.269 0 01-.66-.796M7.678 4.522a1.269 1.269 0 01-1.03.096l-1.06-.348L4.27 5.587l.348 1.062a1.269 1.269 0 01-.096 1.03m11.8 11.799a1.269 1.269 0 011.03-.096l1.06.348 1.318-1.317-.348-1.062a1.269 1.269 0 01.096-1.03m-14.956.001a1.269 1.269 0 01.096 1.03l-.348 1.06 1.317 1.318 1.062-.348a1.269 1.269 0 011.03.096m11.799-11.8a1.269 1.269 0 01-.096-1.03l.348-1.06-1.317-1.318-1.062.348a1.269 1.269 0 01-1.03-.096" fill="none" stroke="currentColor" stroke-linejoin="round" stroke-width="2"></path>
  </symbol>
  <symbol id="tab-listed">
    <title>게시물 목록</title>
    <desc>프로필 페이지에 있는 게시물 목록 첫 번째 탭 아이콘</desc>
    <rect fill="none" height="18" stroke="currentColor" stroke-linecap="round" stroke-linejoin="round" stroke-width="2" width="18" x="3" y="3"></rect>
    <line fill="none" stroke="currentColor" stroke-linecap="round" stroke-linejoin="round" stroke-width="2" x1="9.015" x2="9.015" y1="3" y2="21"></line>
    <line fill="none" stroke="currentColor" stroke-linecap="round" stroke-linejoin="round" stroke-width="2" x1="14.985" x2="14.985" y1="3" y2="21"></line>
    <line fill="none" stroke="currentColor" stroke-linecap="round" stroke-linejoin="round" stroke-width="2" x1="21" x2="3" y1="9.015" y2="9.015"></line>
    <line fill="none" stroke="currentColor" stroke-linecap="round" stroke-linejoin="round" stroke-width="2" x1="21" x2="3" y1="14.985" y2="14.985"></line>
  </symbol>
  <symbol id="tab-saved">
    <title>저장됨</title>
    <desc>프로필 페이지에 있는 게시물 목록 두 번째 탭 아이콘</desc>
    <polygon fill="none" points="20 21 12 13.44 4 21 4 3 20 3 20 21" stroke="currentColor" stroke-linecap="round" stroke-linejoin="round" stroke-width="2"></polygon>
  </symbol>
  <symbol id="tab-tagged">
    <title>태그됨</title>
    <desc>프로필 페이지에 있는 게시물 목록 세 번째 탭 아이콘</desc>
    <path d="M10.201 3.797L12 1.997l1.799 1.8a1.59 1.59 0 001.124.465h5.259A1.818 1.818 0 0122 6.08v14.104a1.818 1.818 0 01-1.818 1.818H3.818A1.818 1.818 0 012 20.184V6.08a1.818 1.818 0 011.818-1.818h5.26a1.59 1.59 0 001.123-.465z" fill="none" stroke="currentColor" stroke-linecap="round" stroke-linejoin="round" stroke-width="2"></path>
    <path d="M18.598 22.002V21.4a3.949 3.949 0 00-3.948-3.949H9.495A3.949 3.949 0 005.546 21.4v.603" fill="none" stroke="currentColor" stroke-linecap="round" stroke-linejoin="round" stroke-width="2"></path><circle cx="12.072" cy="11.075" fill="none" r="3.556" stroke="currentColor" stroke-linecap="round" stroke-linejoin="round" stroke-width="2"></circle>
  </symbol>
  <symbol id="search">
    <title>검색하기</title>
    <desc>헤더 네비게이션에 있는 검색하기 아이콘</desc>
    <path d="M19 10.5A8.5 8.5 0 1110.5 2a8.5 8.5 0 018.5 8.5z" fill="none" stroke="currentColor" stroke-linecap="round" stroke-linejoin="round" stroke-width="2"></path>
    <line fill="none" stroke="currentColor" stroke-linecap="round" stroke-linejoin="round" stroke-width="2" x1="16.511" x2="22" y1="16.511" y2="22"></line>
  </symbol>
  <symbol id="notValid">
    <title>무효</title>
    <desc>입력값 유효성 검사 실패 시 보여지는 아이콘</desc>
    <!-- <path d="M12 2c5.514 0 10 4.486 10 10s-4.486 10-10 10-10-4.486-10-10 4.486-10 10-10zm0-2c-6.627 0-12 5.373-12 12s5.373 12 12 12 12-5.373 12-12-5.373-12-12-12zm6 16.094l-4.157-4.104 4.1-4.141-1.849-1.849-4.105 4.159-4.156-4.102-1.833 1.834 4.161 4.12-4.104 4.157 1.834 1.832 4.118-4.159 4.143 4.102 1.848-1.849z"/> -->
    <path d="M12 2c5.514 0 10 4.486 10 10s-4.486 10-10 10-10-4.486-10-10 4.486-10 10-10zm0-2c-6.627 0-12 5.373-12 12s5.373 12 12 12 12-5.373 12-12-5.373-12-12-12zm5 15.538l-3.592-3.548 3.546-3.587-1.416-1.403-3.545 3.589-3.588-3.543-1.405 1.405 3.593 3.552-3.547 3.592 1.405 1.405 3.555-3.596 3.591 3.55 1.403-1.416z"/>
  </symbol>
  <symbol id="valid">
    <title>유효</title>
    <desc>입력값 유효성 검사 통과 시 보여지는 아이콘</desc>
    <!-- <path d="M12 2c5.514 0 10 4.486 10 10s-4.486 10-10 10-10-4.486-10-10 4.486-10 10-10zm0-2c-6.627 0-12 5.373-12 12s5.373 12 12 12 12-5.373 12-12-5.373-12-12-12zm4.393 7.5l-5.643 5.784-2.644-2.506-1.856 1.858 4.5 4.364 7.5-7.643-1.857-1.857z"/> -->
    <path d="M12 2c5.514 0 10 4.486 10 10s-4.486 10-10 10-10-4.486-10-10 4.486-10 10-10zm0-2c-6.627 0-12 5.373-12 12s5.373 12 12 12 12-5.373 12-12-5.373-12-12-12zm6.25 8.891l-1.421-1.409-6.105 6.218-3.078-2.937-1.396 1.436 4.5 4.319 7.5-7.627z"/>
  </symbol>
</svg>